<?xml version="1.0" encoding="iso-8859-1"?>
<!-- Generator: Adobe Illustrator 19.0.0, SVG Export Plug-In . SVG Version: 6.00 Build 0)  -->
<svg version="1.1" id="Capa_1" xmlns="http://www.w3.org/2000/svg" xmlns:xlink="http://www.w3.org/1999/xlink" x="0px" y="0px"
	 viewBox="0 0 512 512" style="enable-background:new 0 0 512 512;" xml:space="preserve">
<linearGradient id="SVGID_1_" gradientUnits="userSpaceOnUse" x1="234.0021" y1="246.9899" x2="185.1121" y2="198.0899" gradientTransform="matrix(1.0039 0 0 -1.0039 0.1922 516.561)">
	<stop  offset="0" style="stop-color:#F4CA3E"/>
	<stop  offset="1" style="stop-color:#DB9E36"/>
</linearGradient>
<path style="fill:url(#SVGID_1_);" d="M427.703,436.068l-30.335,30.334c-9.411,9.411-24.744,9.164-33.846-0.546L49.457,130.842
	c-9.883-10.542-9.617-27.025,0.6-37.242l4.845-4.845c10.218-10.218,26.7-10.484,37.242-0.6l335.014,314.067
	C436.867,411.324,437.115,426.657,427.703,436.068z"/>
<linearGradient id="SVGID_2_" gradientUnits="userSpaceOnUse" x1="184.5754" y1="291.2295" x2="134.1854" y2="341.6195" gradientTransform="matrix(1.0039 0 0 -1.0039 0.1922 516.561)">
	<stop  offset="0" style="stop-color:#DB9E36;stop-opacity:0"/>
	<stop  offset="1" style="stop-color:#9E6429"/>
</linearGradient>
<polygon style="fill:url(#SVGID_2_);" points="114.399,200.116 184.782,275.193 236.495,223.48 161.418,153.097 "/>
<linearGradient id="SVGID_3_" gradientUnits="userSpaceOnUse" x1="83.4104" y1="392.3945" x2="146.1704" y2="329.6346" gradientTransform="matrix(1.0039 0 0 -1.0039 0.1922 516.561)">
	<stop  offset="0" style="stop-color:#E2EDF2"/>
	<stop  offset="1" style="stop-color:#9FC7E2"/>
</linearGradient>
<polygon style="fill:url(#SVGID_3_);" points="205.967,121.583 82.885,244.665 10.155,171.935 133.237,48.853 "/>
<linearGradient id="SVGID_4_" gradientUnits="userSpaceOnUse" x1="46.6074" y1="287.2676" x2="86.5034" y2="247.3676" gradientTransform="matrix(1.0039 0 0 -1.0039 0.1922 516.561)">
	<stop  offset="0" style="stop-color:#9FC7E2"/>
	<stop  offset="1" style="stop-color:#4975AD"/>
</linearGradient>
<path style="fill:url(#SVGID_4_);" d="M0.837,192.72l9.318-20.784l72.73,72.73l-20.784,9.318c-3.618,1.622-7.863,0.841-10.668-1.963
	L2.799,203.387C-0.005,200.583-0.786,196.338,0.837,192.72z"/>
<linearGradient id="SVGID_5_" gradientUnits="userSpaceOnUse" x1="188.5354" y1="429.1996" x2="228.4354" y2="389.2995" gradientTransform="matrix(1.0039 0 0 -1.0039 0.1922 516.561)">
	<stop  offset="0" style="stop-color:#9FC7E2"/>
	<stop  offset="1" style="stop-color:#4975AD"/>
</linearGradient>
<path style="fill:url(#SVGID_5_);" d="M154.022,39.534l-20.784,9.318l72.73,72.73l9.318-20.784
	c1.622-3.618,0.841-7.863-1.963-10.668L164.69,41.497C161.885,38.693,157.64,37.912,154.022,39.534z"/>
<linearGradient id="SVGID_6_" gradientUnits="userSpaceOnUse" x1="289.0504" y1="186.7545" x2="236.6204" y2="239.1846" gradientTransform="matrix(1.0039 0 0 -1.0039 0.1922 516.561)">
	<stop  offset="0" style="stop-color:#DB9E36;stop-opacity:0"/>
	<stop  offset="1" style="stop-color:#9E6429"/>
</linearGradient>
<polygon style="fill:url(#SVGID_6_);" points="219.075,311.774 289.458,386.851 348.153,328.156 273.076,257.774 "/>
<linearGradient id="SVGID_7_" gradientUnits="userSpaceOnUse" x1="232.6588" y1="279.213" x2="270.5888" y2="241.293" gradientTransform="matrix(1.0039 0 0 -1.0039 0.1922 516.561)">
	<stop  offset="0" style="stop-color:#FF931E"/>
	<stop  offset="1" style="stop-color:#FF5D00"/>
</linearGradient>
<path style="fill:url(#SVGID_7_);" d="M78.253,440.796l-30.334-30.335c-9.411-9.411-9.164-24.744,0.546-33.846L383.478,62.548
	c10.542-9.883,27.025-9.617,37.242,0.6l4.845,4.845c10.218,10.218,10.484,26.7,0.6,37.242L112.099,440.25
	C102.997,449.96,87.664,450.207,78.253,440.796z"/>
<linearGradient id="SVGID_8_" gradientUnits="userSpaceOnUse" x1="439.0123" y1="415.9304" x2="275.6384" y2="252.5566" gradientTransform="matrix(1.0039 0 0 -1.0039 0.1922 516.561)">
	<stop  offset="0" style="stop-color:#E2EDF2"/>
	<stop  offset="1" style="stop-color:#9FC7E2"/>
</linearGradient>
<path style="fill:url(#SVGID_8_);" d="M511.893,172.446c0.539-2.185-1.037-4.35-3.282-4.502
	c-43.266-2.919-87.243-22.011-122.034-56.801c-11.418-11.418-21.141-23.825-29.156-36.872c-16.077-26.17-52.38-30.441-74.097-8.723
	l0,0c-20.965,20.965-17.974,56.003,6.542,72.679c8.306,5.65,16.204,12.156,23.571,19.523
	c47.255,47.255,59.292,116.364,36.166,174.783c-1.126,2.846,1.473,5.772,4.409,4.908c35.649-10.48,69.264-29.739,97.389-57.864
	C482.076,248.902,502.205,211.699,511.893,172.446z"/>
<linearGradient id="SVGID_9_" gradientUnits="userSpaceOnUse" x1="414.4535" y1="277.1176" x2="345.5635" y2="346.0176" gradientTransform="matrix(1.0039 0 0 -1.0039 0.1922 516.561)">
	<stop  offset="0" style="stop-color:#E2EDF2;stop-opacity:0"/>
	<stop  offset="1" style="stop-color:#4975AD"/>
</linearGradient>
<path style="fill:url(#SVGID_9_);" d="M511.891,172.451c-9.68,39.251-29.817,76.459-60.493,107.12
	c-28.127,28.127-61.734,47.391-97.386,57.876c-2.931,0.858-5.536-2.072-4.403-4.908c17.273-43.628,14.929-93.227-7.049-135.233
	c5.018,0,10.075-1.964,13.852-5.985l47.855-51.044c2.618-2.795,4.227-6.176,4.84-9.694c30.307,22.509,65.128,35.039,99.5,37.356
	C510.855,168.102,512.436,170.256,511.891,172.451z"/>
<linearGradient id="SVGID_10_" gradientUnits="userSpaceOnUse" x1="418.5292" y1="264.7644" x2="186.1592" y2="309.9644" gradientTransform="matrix(1.0039 0 0 -1.0039 0.1922 516.561)">
	<stop  offset="0" style="stop-color:#E2EDF2"/>
	<stop  offset="1" style="stop-color:#9FC7E2"/>
</linearGradient>
<path style="fill:url(#SVGID_10_);" d="M508.601,167.943c-10.008-0.678-20.052-2.224-30.014-4.625
	c-10.949,32.309-29.265,62.669-55.02,88.424c-19.266,19.266-41.116,34.349-64.422,45.322c-1.831,12.093-5.012,24.021-9.569,35.533
	c-1.114,2.814,1.539,5.695,4.442,4.842c35.647-10.48,69.26-29.738,97.383-57.862c30.676-30.676,50.804-67.88,60.492-107.135
	C512.434,170.253,510.851,168.096,508.601,167.943z"/>
<linearGradient id="SVGID_11_" gradientUnits="userSpaceOnUse" x1="335.0597" y1="392.1238" x2="377.9997" y2="349.1838" gradientTransform="matrix(1.0039 0 0 -1.0039 0.1922 516.561)">
	<stop  offset="0" style="stop-color:#E2EDF2"/>
	<stop  offset="1" style="stop-color:#9FC7E2"/>
</linearGradient>
<path style="fill:url(#SVGID_11_);" d="M388.849,100.212c-4.663-4.663-9.086-9.466-13.274-14.39
	c-6.923-8.14-19.305-8.715-27.101-1.406l-47.621,44.643c-7.815,7.327-7.879,19.615-0.296,27.181
	c0.047,0.047,0.095,0.094,0.143,0.143c10.059,10.059,18.792,20.942,26.202,32.429c6.608,10.244,21.173,11.404,29.509,2.51
	l47.855-51.046c7.3-7.786,6.728-20.141-1.382-27.078C398.085,109.092,393.401,104.764,388.849,100.212z"/>
<g>
</g>
<g>
</g>
<g>
</g>
<g>
</g>
<g>
</g>
<g>
</g>
<g>
</g>
<g>
</g>
<g>
</g>
<g>
</g>
<g>
</g>
<g>
</g>
<g>
</g>
<g>
</g>
<g>
</g>
</svg>
