<svg height="512pt" viewBox="0 0 512 512.00041" width="512pt" xmlns="http://www.w3.org/2000/svg" xmlns:xlink="http://www.w3.org/1999/xlink"><linearGradient id="a"><stop offset="0" stop-color="#f2e9dc"/><stop offset=".2282" stop-color="#f0e4d7"/><stop offset=".5158" stop-color="#ead7c7"/><stop offset=".8338" stop-color="#e0c2ad"/><stop offset="1" stop-color="#dab49d"/></linearGradient><linearGradient id="b" gradientTransform="matrix(.709873 .709873 -.709873 .709873 -56.868885 649.159804)" gradientUnits="userSpaceOnUse" x1="-168.3681" x2="113.9428" xlink:href="#a" y1="-681.4935" y2="-681.4935"/><linearGradient id="c" gradientTransform="matrix(.709873 .709873 -.709873 .709873 -56.868885 649.159804)" gradientUnits="userSpaceOnUse" x1="45.8405" x2="-331.2459" xlink:href="#a" y1="-676.3839" y2="-676.3839"/><linearGradient id="d" gradientUnits="userSpaceOnUse" x1="332.5931929304" x2="309.2550181964" y1="275.166409863" y2="161.3930339172"><stop offset="0" stop-color="#f2e9dc" stop-opacity="0"/><stop offset=".6804" stop-color="#cfa37b" stop-opacity=".682353"/><stop offset="1" stop-color="#c08552"/></linearGradient><linearGradient id="e" gradientTransform="matrix(.709873 .709873 -.709873 .709873 -56.868885 649.159804)" gradientUnits="userSpaceOnUse" x1="-82.8416" x2="-23.8528" xlink:href="#a" y1="-558.5925" y2="-558.5925"/><linearGradient id="f" gradientTransform="matrix(.709873 .709873 -.709873 .709873 -56.868885 649.159804)" gradientUnits="userSpaceOnUse" x1="-71.1593" x2="-20.7913" y1="-416.1169" y2="-416.1169"><stop offset="0" stop-color="#97a03b"/><stop offset="1" stop-color="#6c7d47"/></linearGradient><linearGradient id="g"><stop offset="0" stop-color="#ffe548"/><stop offset=".2472" stop-color="#ffe042"/><stop offset=".5621" stop-color="#ffd133"/><stop offset=".9123" stop-color="#ffb919"/><stop offset="1" stop-color="#ffb211"/></linearGradient><linearGradient id="h" gradientTransform="matrix(.709873 .709873 -.709873 .709873 -56.868885 649.159804)" gradientUnits="userSpaceOnUse" x1="-89.4552" x2="-15.6264" xlink:href="#g" y1="-498.0531" y2="-498.0531"/><linearGradient id="i" gradientTransform="matrix(.709873 .709873 -.709873 .709873 -56.868885 649.159804)" gradientUnits="userSpaceOnUse" x1="-115.6669" x2="5.3021" xlink:href="#g" y1="-320.0376" y2="-223.3839"/><linearGradient id="j"><stop offset="0" stop-color="#ffb211" stop-opacity="0"/><stop offset=".1722" stop-color="#ffad13" stop-opacity=".172549"/><stop offset=".383" stop-color="#ff9e1a" stop-opacity=".384314"/><stop offset=".614" stop-color="#ff8525" stop-opacity=".615686"/><stop offset=".8577" stop-color="#ff6334" stop-opacity=".858824"/><stop offset="1" stop-color="#ff4b3e"/></linearGradient><linearGradient id="k" gradientTransform="matrix(.709873 .709873 -.709873 .709873 -56.868885 649.159804)" gradientUnits="userSpaceOnUse" x1="56.2079" x2="-66.0039" xlink:href="#j" y1="-240.6234" y2="-362.8353"/><linearGradient id="l" gradientTransform="matrix(.709873 .709873 -.709873 .709873 -56.868885 649.159804)" gradientUnits="userSpaceOnUse" x1="56.8479" x2="-65.3498" xlink:href="#j" y1="-241.2814" y2="-363.4791"/><linearGradient id="m" gradientTransform="matrix(.709873 .709873 -.709873 .709873 -56.868885 649.159804)" gradientUnits="userSpaceOnUse" x1="57.4039" x2="-64.8282" xlink:href="#j" y1="-241.794" y2="-364.0261"/><linearGradient id="n" gradientTransform="matrix(.709873 .709873 -.709873 .709873 -56.868885 649.159804)" gradientUnits="userSpaceOnUse" x1="58.1644" x2="-64.074" xlink:href="#j" y1="-242.5476" y2="-364.7861"/><linearGradient id="o" gradientTransform="matrix(.709873 .709873 -.709873 .709873 -56.868885 649.159804)" gradientUnits="userSpaceOnUse" x1="-22.8813" x2="-145.0779" xlink:href="#j" y1="-161.5542" y2="-283.7508"/><linearGradient id="p" gradientTransform="matrix(.709873 .709873 -.709873 .709873 -56.868885 649.159804)" gradientUnits="userSpaceOnUse" x1="57.8173" x2="-64.3894" xlink:href="#j" y1="-242.2392" y2="-364.446"/><linearGradient id="q" gradientTransform="matrix(.709873 .709873 -.709873 .709873 -56.868885 649.159804)" gradientUnits="userSpaceOnUse" x1="-21.7635" x2="-143.9705" xlink:href="#j" y1="-162.6583" y2="-284.8652"/><linearGradient id="r" gradientTransform="matrix(.709873 .709873 -.709873 .709873 -56.868885 649.159804)" gradientUnits="userSpaceOnUse" x1="17.7344" x2="-104.4732" xlink:href="#j" y1="-202.1553" y2="-324.3629"/><linearGradient id="s" gradientTransform="matrix(.709873 .709873 -.709873 .709873 -56.868885 649.159804)" gradientUnits="userSpaceOnUse" x1="-20.4129" x2="-142.6204" xlink:href="#j" y1="-164.0081" y2="-286.2156"/><linearGradient id="t" gradientTransform="matrix(.709873 .709873 -.709873 .709873 -56.868885 649.159804)" gradientUnits="userSpaceOnUse" x1="-22.2522" x2="-144.4581" xlink:href="#j" y1="-162.1709" y2="-284.3769"/><linearGradient id="u" gradientTransform="matrix(.709873 .709873 -.709873 .709873 -56.868885 649.159804)" gradientUnits="userSpaceOnUse" x1="-22.6288" x2="-144.8248" xlink:href="#j" y1="-161.8077" y2="-284.0037"/><linearGradient id="v" gradientTransform="matrix(.709873 .709873 -.709873 .709873 -56.868885 649.159804)" gradientUnits="userSpaceOnUse" x1="-21.1663" x2="-143.3566" xlink:href="#j" y1="-163.2788" y2="-285.4691"/><linearGradient id="w" gradientTransform="matrix(.709873 .709873 -.709873 .709873 -56.868885 649.159804)" gradientUnits="userSpaceOnUse" x1="-56.5526" x2="-56.5526" xlink:href="#j" y1="-236.7442" y2="-192.0673"/><path d="m352.632812 282.410156c-47.765624-33.65625-89.386718-75.277344-123.042968-123.042968-16.203125-23-13.511719-54.320313 6.382812-74.210938l46.460938-46.464844c25.308594-25.308594 59.804687-39.265625 95.589844-38.6718748l69.332031 5.6249998c31.464843 2.554688 56.445312 27.535157 59 59l5.625 69.332031c.589843 35.785157-13.363281 70.28125-38.671875 95.589844l-46.464844 46.460938c-19.890625 19.894531-51.210938 22.589844-74.210938 6.382812zm0 0" fill="url(#b)"/><path d="m344.859375 275.015625c-42.492187-28.890625-78.984375-65.382813-107.875-107.875-13.910156-20.460937-10.0625-49.40625 9.113281-68.585937l44.792969-44.792969c24.398437-24.398438 56.757813-38.75 89.671875-39.769531l63.566406 2.152343c28.847656.976563 50.75 22.878907 51.726563 51.730469l2.152343 63.5625c-1.019531 32.914062-15.371093 65.273438-39.769531 89.671875l-44.792969 44.792969c-19.179687 19.179687-48.125 23.023437-68.585937 9.113281zm0 0" fill="url(#c)"/><path d="m360.585938 151.414062c-12.511719-12.511718-54.980469 9.25-98.515626 49.308594 26.773438 30.703125 57.160157 58.148438 90.5625 81.6875 3.632813 2.558594 7.46875 4.644532 11.4375 6.265625v-125.53125c.277344-5.070312-.832031-9.074219-3.484374-11.730469zm0 0" fill="url(#d)"/><path d="m299.082031 262.644531c-47.699219 47.699219-97.421875-2.027343-49.726562-49.726562 47.699219-47.699219 97.5-75.234375 111.230469-61.503907 13.730468 13.730469-13.804688 63.53125-61.503907 111.230469zm0 0" fill="url(#e)"/><path d="m150.550781 400.601562-39.152343-39.152343c-6.375-6.375-6.375-16.707031 0-23.082031l111.71875-111.722657c6.375-6.375 16.707031-6.375 23.082031 0l39.15625 39.15625c6.371093 6.375 6.371093 16.707031 0 23.082031l-111.722657 111.71875c-6.375 6.375-16.707031 6.375-23.082031 0zm0 0" fill="url(#f)"/><path d="m228.875 238.578125 44.546875 44.546875c3.492187 3.492188 5.148437 8.117188 5 12.691406l6.933594-6.933594c6.371093-6.375 6.371093-16.707031 0-23.082031l-39.15625-39.152343c-6.375-6.375-16.707031-6.375-23.082031 0l-6.933594 6.933593c4.578125-.148437 9.199218 1.503907 12.691406 4.996094zm0 0" fill="url(#h)"/><path d="m75.933594 327.472656-64.925782 54.230469c-13.828124 11.550781-14.765624 32.480469-2.023437 45.21875l76.089844 76.09375c12.742187 12.742187 33.671875 11.804687 45.222656-2.023437l54.230469-64.925782c10.835937-12.976562 9.980468-32.074218-1.972656-44.027344l-62.59375-62.59375c-11.953126-11.953124-31.054688-12.808593-44.027344-1.972656zm20.15625 138.707032-50.269532-50.269532c-6.132812-6.132812-5.84375-16.164062.636719-21.933594l39.523438-35.203124c5.96875-5.316407 15.050781-5.054688 20.703125.597656l45.941406 45.945312c5.65625 5.652344 5.917969 14.734375.601562 20.703125l-35.203124 39.523438c-5.769532 6.480469-15.800782 6.769531-21.933594.636719zm0 0" fill="url(#i)"/><path d="m153.699219 406.515625c.101562.125.191406.261719.289062.390625-.097656-.128906-.1875-.265625-.289062-.390625zm0 0" fill="url(#k)"/><path d="m154.625 407.804688c.097656.148437.1875.304687.277344.457031-.089844-.152344-.179688-.308594-.277344-.457031zm0 0" fill="url(#l)"/><path d="m155.414062 409.183594c.074219.148437.148438.304687.21875.457031-.070312-.15625-.144531-.308594-.21875-.457031zm0 0" fill="url(#m)"/><path d="m156.566406 412.261719c.019532.082031.046875.164062.066406.246093-.019531-.082031-.046874-.164062-.066406-.246093zm0 0" fill="url(#n)"/><path d="m41.582031 403.003906c-.007812.039063-.015625.074219-.019531.113282.003906-.035157.011719-.074219.019531-.113282zm0 0" fill="url(#o)"/><path d="m156.058594 410.65625c.050781.132812.101562.265625.148437.398438-.046875-.132813-.097656-.265626-.148437-.398438zm0 0" fill="url(#p)"/><path d="m43.28125 397.972656c-.09375.167969-.179688.339844-.265625.515625.085937-.175781.171875-.347656.265625-.515625zm0 0" fill="url(#q)"/><path d="m130.296875 500.992188 26.6875-31.949219v-51.8125c-.257813 3.15625-1.5 6.253906-3.757813 8.789062l-35.203124 39.523438c-5.769532 6.480469-15.800782 6.769531-21.933594.636719l-50.269532-50.269532c-2.628906-2.628906-4.070312-5.976562-4.355468-9.394531v52.890625l43.609375 43.609375c12.742187 12.742187 33.671875 11.804687 45.222656-2.023437zm0 0" fill="url(#r)"/><path d="m45.234375 395.203125c-.121094.132813-.222656.277344-.339844.414063.117188-.136719.21875-.28125.339844-.414063zm0 0" fill="url(#s)"/><path d="m42.550781 399.503906c-.066406.160156-.128906.320313-.191406.484375.0625-.164062.125-.324219.191406-.484375zm0 0" fill="url(#t)"/><path d="m41.984375 401.152344c-.035156.128906-.074219.253906-.109375.382812.035156-.128906.074219-.253906.109375-.382812zm0 0" fill="url(#u)"/><path d="m44.175781 396.539062c-.113281.160157-.21875.328126-.328125.496094.109375-.167968.214844-.335937.328125-.496094zm0 0" fill="url(#v)"/><path d="m96.089844 466.179688-50.269532-50.269532c-.539062-.539062-1.007812-1.117187-1.449218-1.710937l-32.890625-32.890625-.472657.394531c-13.828124 11.550781-14.765624 32.480469-2.023437 45.222656l76.089844 76.09375c12.742187 12.738281 33.671875 11.800781 45.222656-2.027343l.394531-.472657-32.890625-32.890625c-.59375-.4375-1.171875-.910156-1.710937-1.449218zm0 0" fill="url(#w)"/></svg>