<?xml version="1.0" encoding="iso-8859-1"?>
<!-- Generator: Adobe Illustrator 19.0.0, SVG Export Plug-In . SVG Version: 6.00 Build 0)  -->
<svg version="1.1" id="Capa_1" xmlns="http://www.w3.org/2000/svg" xmlns:xlink="http://www.w3.org/1999/xlink" x="0px" y="0px"
	 viewBox="0 0 512 512" style="enable-background:new 0 0 512 512;" xml:space="preserve">
<linearGradient id="SVGID_1_" gradientUnits="userSpaceOnUse" x1="216.2686" y1="298.083" x2="892.9286" y2="-378.577" gradientTransform="matrix(1.0039 0 0 -1.0039 0.1922 516.5609)">
	<stop  offset="0" style="stop-color:#9FC7E2"/>
	<stop  offset="1" style="stop-color:#4975AD"/>
</linearGradient>
<path style="fill:url(#SVGID_1_);" d="M472.318,512H39.682C17.766,512,0,494.234,0,472.318V39.682C0,17.766,17.766,0,39.682,0
	h432.636C494.234,0,512,17.766,512,39.682v432.636C512,494.234,494.234,512,472.318,512z"/>
<path style="fill:#9FC7E2;" d="M461.021,27.751H50.979c-12.808,0-23.229,10.421-23.229,23.229v410.041
	c0,12.808,10.421,23.229,23.229,23.229h410.042c12.808,0,23.229-10.421,23.229-23.229V50.979
	C484.249,38.171,473.829,27.751,461.021,27.751z M479.594,50.979v26.984h-45.558V32.406h26.984
	C471.262,32.406,479.594,40.737,479.594,50.979z M233.226,278.774v-45.548h45.548v45.548H233.226z M278.774,283.428v45.548h-45.548
	v-45.548H278.774z M228.572,278.774h-45.548v-45.548h45.548V278.774z M233.226,228.572v-45.548h45.548v45.548H233.226z
	 M283.428,233.226h45.548v45.548h-45.548V233.226z M283.428,228.572v-45.548h45.548v45.548H283.428z M283.428,178.37v-45.549h45.548
	v45.549H283.428z M278.774,178.37h-45.548v-45.549h45.548V178.37z M228.572,178.37h-45.548v-45.549h45.548V178.37z M228.572,183.024
	v45.548h-45.548v-45.548H228.572z M178.369,228.572h-45.548v-45.548h45.548V228.572z M178.369,233.226v45.548h-45.548v-45.548
	H178.369z M178.369,283.428v45.548h-45.548v-45.548H178.369z M183.023,283.428h45.548v45.548h-45.548V283.428z M228.572,333.63
	v45.549h-45.548V333.63H228.572z M233.226,333.63h45.548v45.549h-45.548V333.63z M283.428,333.63h45.548v45.549h-45.548V333.63z
	 M283.428,328.976v-45.548h45.548v45.548H283.428z M333.631,283.428h45.548v45.548h-45.548V283.428z M333.631,278.774v-45.548
	h45.548v45.548H333.631z M333.631,228.572v-45.548h45.548v45.548H333.631z M333.631,178.37v-45.549h45.548v45.549H333.631z
	 M333.631,128.166V82.618h45.548v45.548C379.179,128.166,333.631,128.166,333.631,128.166z M328.977,128.166h-45.548V82.618h45.548
	V128.166z M278.774,128.166h-45.548V82.618h45.548V128.166z M228.572,128.166h-45.548V82.618h45.548V128.166z M178.369,128.166
	h-45.548V82.618h45.548V128.166z M178.369,132.821v45.549h-45.548v-45.549H178.369z M128.167,178.37H82.619v-45.549h45.548V178.37z
	 M128.167,183.024v45.548H82.619v-45.548H128.167z M128.167,233.226v45.548H82.619v-45.548H128.167z M128.167,283.428v45.548H82.619
	v-45.548H128.167z M128.167,333.63v45.549H82.619V333.63H128.167z M132.821,333.63h45.548v45.549h-45.548V333.63z M178.369,383.834
	v45.548h-45.548v-45.548H178.369z M183.023,383.834h45.548v45.548h-45.548V383.834z M233.226,383.834h45.548v45.548h-45.548V383.834
	z M283.428,383.834h45.548v45.548h-45.548V383.834z M333.631,383.834h45.548v45.548h-45.548V383.834z M333.631,379.179V333.63
	h45.548v45.549H333.631z M383.833,333.63h45.548v45.549h-45.548V333.63z M383.833,328.976v-45.548h45.548v45.548H383.833z
	 M383.833,278.774v-45.548h45.548v45.548H383.833z M383.833,228.572v-45.548h45.548v45.548H383.833z M383.833,178.37v-45.549h45.548
	v45.549H383.833z M383.833,128.166V82.618h45.548v45.548C429.381,128.166,383.833,128.166,383.833,128.166z M383.833,77.964V32.406
	h45.548v45.558H383.833z M379.179,77.964h-45.548V32.406h45.548V77.964z M328.977,77.964h-45.548V32.406h45.548V77.964z
	 M278.774,77.964h-45.548V32.406h45.548V77.964z M228.572,77.964h-45.548V32.406h45.548V77.964z M178.369,77.964h-45.548V32.406
	h45.548V77.964z M128.167,77.964H82.619V32.406h45.548V77.964z M128.167,82.618v45.548H82.619V82.618H128.167z M77.964,128.166
	H32.406V82.618h45.558V128.166z M77.964,132.821v45.549H32.406v-45.549H77.964z M77.964,183.024v45.548H32.406v-45.548H77.964z
	 M77.964,233.226v45.548H32.406v-45.548H77.964z M77.964,283.428v45.548H32.406v-45.548H77.964z M77.964,333.63v45.549H32.406
	V333.63H77.964z M77.964,383.834v45.548H32.406v-45.548H77.964z M82.618,383.834h45.548v45.548H82.618V383.834z M128.167,434.036
	v45.558H82.619v-45.558H128.167z M132.821,434.036h45.548v45.558h-45.548V434.036z M183.023,434.036h45.548v45.558h-45.548V434.036z
	 M233.226,434.036h45.548v45.558h-45.548V434.036z M283.428,434.036h45.548v45.558h-45.548V434.036z M333.631,434.036h45.548v45.558
	h-45.548V434.036z M383.833,434.036h45.548v45.558h-45.548V434.036z M383.833,429.382v-45.548h45.548v45.548H383.833z
	 M434.036,383.834h45.558v45.548h-45.558V383.834z M434.036,379.179V333.63h45.558v45.549H434.036z M434.036,328.976v-45.548h45.558
	v45.548H434.036z M434.036,278.774v-45.548h45.558v45.548H434.036z M434.036,228.572v-45.548h45.558v45.548H434.036z
	 M434.036,178.37v-45.549h45.558v45.549H434.036z M434.036,128.166V82.618h45.558v45.548
	C479.594,128.166,434.036,128.166,434.036,128.166z M50.979,32.406h26.984v45.558H32.406V50.979
	C32.406,40.737,40.738,32.406,50.979,32.406z M32.406,461.021v-26.984h45.558v45.558H50.979
	C40.738,479.594,32.406,471.263,32.406,461.021z M461.021,479.594h-26.984v-45.558h45.558v26.984
	C479.594,471.263,471.262,479.594,461.021,479.594z"/>
<g>
	<path style="fill:#FFFFFF;" d="M422.541,63.57H140.463c-10.216,0-18.526,8.311-18.526,18.527v60.892
		c0,5.083-4.135,9.218-9.218,9.218H88.456c-10.216,0-18.526,8.31-18.526,18.526v59.058l-27.376-24.037V103.91
		c0-2.57-2.084-4.654-4.654-4.654s-4.654,2.084-4.654,4.654v106.058L69.93,242.18v95.195v4.654v94.681
		c0,2.57,2.084,4.654,4.654,4.654c2.57,0,4.654-2.084,4.654-4.654v-15.516h62.565v1.643c0,10.216,8.31,18.527,18.526,18.527h199.186
		c10.215,0,18.526-8.311,18.526-18.527v-71.59c0-5.083,4.135-9.218,9.218-9.218h35.281c10.216,0,18.526-8.311,18.526-18.526V82.098
		C441.068,71.882,432.757,63.57,422.541,63.57z M132.585,342.029c5.083,0,9.218,4.135,9.218,9.218v3.038H79.238v-12.256H132.585z
		 M141.803,373.485H79.238v-9.891h62.565V373.485z M79.238,382.794h62.565v9.891H79.238V382.794z M79.238,411.885v-9.891h62.565
		v9.891H79.238z M422.541,332.721H387.26h-9.218v-44.956c0-2.57-2.084-4.654-4.654-4.654s-4.654,2.084-4.654,4.654v44.956H217.475
		l23.065-23.066c1.818-1.817,1.818-4.765,0-6.582c-1.818-1.818-4.765-1.818-6.583,0l-31.011,31.011
		c-1.331,1.33-1.729,3.333-1.009,5.072c0.721,1.74,2.417,2.874,4.3,2.874h162.496v9.218v71.59c0,5.083-4.135,9.218-9.217,9.218
		H160.329c-5.083,0-9.218-4.135-9.218-9.218v-71.59c0-10.216-8.31-18.527-18.526-18.527H79.238v-82.367l19.202,16.86
		c0.883,0.776,1.979,1.157,3.069,1.157c1.293,0,2.579-0.535,3.5-1.583c1.696-1.932,1.505-4.873-0.427-6.57l-25.344-22.253v-67.232
		c0-5.082,4.135-9.217,9.218-9.217h24.263h89.64v119.266c0,2.57,2.084,4.654,4.654,4.654s4.654-2.084,4.654-4.654V161.516h119.067
		l33.271-33.27c1.818-1.817,1.818-4.765,0-6.582c-1.818-1.818-4.765-1.818-6.583,0l-30.543,30.543H211.668h-4.654h-78.248
		c1.568-2.719,2.479-5.861,2.479-9.218V82.098c0-5.083,4.135-9.218,9.218-9.218h282.078c5.083,0,9.218,4.135,9.218,9.218v70.11
		h-49.812c-2.57,0-4.654,2.084-4.654,4.654s2.084,4.654,4.654,4.654h49.812v161.988
		C431.759,328.586,427.623,332.721,422.541,332.721z"/>
	<rect x="31.906" y="25.754" style="fill:#FFFFFF;" width="82.382" height="10.967"/>
	<rect x="31.906" y="44.169" style="fill:#FFFFFF;" width="82.382" height="10.967"/>
	<rect x="31.906" y="62.584" style="fill:#FFFFFF;" width="82.382" height="10.967"/>
	<rect x="455.389" y="293.205" style="fill:#FFFFFF;" width="23.588" height="10.967"/>
	<rect x="455.389" y="311.617" style="fill:#FFFFFF;" width="13.993" height="10.967"/>
	<rect x="31.906" y="80.996" style="fill:#FFFFFF;" width="52.776" height="10.967"/>
	<path style="fill:#FFFFFF;" d="M476.667,277.118h-6.757V73.556h6.757c1.893,0,3.427-1.534,3.427-3.427
		c0-1.892-1.534-3.427-3.427-3.427h-20.372c-1.893,0-3.427,1.534-3.427,3.427c0,1.893,1.534,3.427,3.427,3.427h6.759v203.561h-6.759
		c-1.893,0-3.427,1.534-3.427,3.427c0,1.893,1.534,3.427,3.427,3.427h20.372c1.893,0,3.427-1.534,3.427-3.427
		C480.094,278.652,478.56,277.118,476.667,277.118z"/>
	<path style="fill:#FFFFFF;" d="M304.846,170.182h-72.984c-4.657,0-8.447,3.789-8.447,8.447v94.484c0,4.657,3.789,8.445,8.447,8.445
		h72.984c4.657,0,8.447-3.789,8.447-8.445v-94.484C313.292,173.971,309.503,170.182,304.846,170.182z M303.983,272.248h-71.259
		v-92.757h71.259V272.248z"/>
	<path style="fill:#FFFFFF;" d="M420.743,170.182h-37.185c-3.632,0-6.587,2.955-6.587,6.587v48.139c0,3.632,2.955,6.587,6.587,6.587
		h37.185c3.632,0,6.587-2.955,6.587-6.587v-48.139C427.328,173.136,424.374,170.182,420.743,170.182z M418.019,222.184h-31.74
		v-42.693h31.74V222.184z"/>
	<path style="fill:#FFFFFF;" d="M211.279,87.619h-22.503c-7.482,0-13.57,6.088-13.57,13.569v21.733c0,7.483,6.088,13.57,13.57,13.57
		h22.503c13.475,0,24.436-10.963,24.436-24.436S224.754,87.619,211.279,87.619z M211.279,127.183h-22.503
		c-2.349,0-4.261-1.911-4.261-4.262v-21.733c0-2.349,1.911-4.261,4.261-4.261h22.503c8.342,0,15.127,6.787,15.127,15.127
		S219.621,127.183,211.279,127.183z"/>
	<path style="fill:#FFFFFF;" d="M155.425,87.619c-7.914,0-14.352,6.437-14.352,14.351v20.17c0,7.914,6.438,14.352,14.352,14.352
		s14.352-6.438,14.352-14.352v-20.17C169.777,94.056,163.339,87.619,155.425,87.619z M160.468,122.14
		c0,2.781-2.262,5.043-5.043,5.043c-2.781,0-5.043-2.263-5.043-5.043v-20.17c0-2.781,2.262-5.042,5.043-5.042
		c2.781,0,5.043,2.262,5.043,5.042V122.14z"/>
	<path style="fill:#FFFFFF;" d="M236.72,387.061h114.358c6.328,0,11.476-5.148,11.476-11.476v-15.06
		c0-6.329-5.148-11.476-11.476-11.476H236.72c-6.328,0-11.476,5.148-11.476,11.476v15.06
		C225.243,381.914,230.392,387.061,236.72,387.061z M234.552,360.525c0-1.196,0.972-2.167,2.167-2.167h114.358
		c1.195,0,2.166,0.972,2.166,2.167v15.06c0,1.196-0.972,2.167-2.166,2.167H236.72c-1.195,0-2.167-0.972-2.167-2.167V360.525z"/>
	<path style="fill:#FFFFFF;" d="M286.354,459.021c-1.892,0-3.427,1.534-3.427,3.427v6.759H79.365v-6.759
		c0-1.892-1.534-3.427-3.427-3.427c-1.893,0-3.427,1.534-3.427,3.427v20.372c0,1.893,1.534,3.427,3.427,3.427
		c1.893,0,3.427-1.534,3.427-3.427v-6.757h203.561v6.757c0,1.893,1.534,3.427,3.427,3.427c1.893,0,3.427-1.534,3.427-3.427v-20.372
		C289.781,460.555,288.246,459.021,286.354,459.021z"/>
</g>
<linearGradient id="SVGID_2_" gradientUnits="userSpaceOnUse" x1="371.5402" y1="135.0634" x2="434.8775" y2="71.7261" gradientTransform="matrix(1.0039 0 0 -1.0039 0.1922 516.5609)">
	<stop  offset="0" style="stop-color:#FFFFFF"/>
	<stop  offset="1" style="stop-color:#E8EFEE"/>
</linearGradient>
<path style="fill:url(#SVGID_2_);" d="M512,365.727c0,0-0.954,2.701-4.706,6.453c-1.393,1.393-124.176,126.029-124.176,126.029
	C374.425,507.033,362.555,512,350.17,512l0,0l0,0c10.692,0,19.36-8.668,19.36-19.36v-94.648c0-17.821,14.446-32.266,32.266-32.266
	L512,365.727L512,365.727z"/>
<linearGradient id="SVGID_3_" gradientUnits="userSpaceOnUse" x1="460.3393" y1="46.2637" x2="422.4493" y2="84.1537" gradientTransform="matrix(1.0039 0 0 -1.0039 0.1922 516.5609)">
	<stop  offset="0" style="stop-color:#9FC7E2"/>
	<stop  offset="1" style="stop-color:#4975AD"/>
</linearGradient>
<path style="fill:url(#SVGID_3_);" d="M512,365.731V472.32c0,21.912-17.768,39.68-39.68,39.68H350.173
	c12.381,0,24.25-4.968,32.943-13.789c0,0,122.787-124.637,124.183-126.033C511.046,368.43,512,365.731,512,365.731z"/>
<g>
</g>
<g>
</g>
<g>
</g>
<g>
</g>
<g>
</g>
<g>
</g>
<g>
</g>
<g>
</g>
<g>
</g>
<g>
</g>
<g>
</g>
<g>
</g>
<g>
</g>
<g>
</g>
<g>
</g>
</svg>
