<svg height="512pt" viewBox="0 -64 512 512" width="512pt" xmlns="http://www.w3.org/2000/svg" xmlns:xlink="http://www.w3.org/1999/xlink"><linearGradient id="a"><stop offset="0" stop-color="#ff4974"/><stop offset=".2277" stop-color="#fd4571"/><stop offset=".4662" stop-color="#f93867"/><stop offset=".7098" stop-color="#f12358"/><stop offset=".9554" stop-color="#e60642"/><stop offset="1" stop-color="#e4003d"/></linearGradient><linearGradient id="b" gradientUnits="userSpaceOnUse" x1="256.00011" x2="256.00011" xlink:href="#a" y1="83.9581243922" y2="137.175427259"/><linearGradient id="c" gradientUnits="userSpaceOnUse" x1="256.00011" x2="256.00011" xlink:href="#a" y1="292.7738" y2="331.926758"/><linearGradient id="d"><stop offset="0" stop-color="#e4003d" stop-opacity="0"/><stop offset=".3592" stop-color="#c81d47" stop-opacity=".360784"/><stop offset=".7611" stop-color="#af3750" stop-opacity=".760784"/><stop offset="1" stop-color="#a64153"/></linearGradient><linearGradient id="e" gradientUnits="userSpaceOnUse" x1="174.3048529358" x2="107.2930594358" xlink:href="#d" y1="136.3841359386" y2="102.7527489386"/><linearGradient id="f" gradientUnits="userSpaceOnUse" x1="364.0461109358" x2="297.0343174358" xlink:href="#d" y1="136.3841359386" y2="102.7527489386"/><linearGradient id="g" gradientUnits="userSpaceOnUse" x1="174.3048529358" x2="107.2930594358" xlink:href="#d" y1="332.1726184978" y2="298.5412314978"/><linearGradient id="h" gradientUnits="userSpaceOnUse" x1="364.0461109358" x2="297.0343174358" xlink:href="#d" y1="332.1726184978" y2="298.5412314978"/><linearGradient id="i"><stop offset="0" stop-color="#f2e9dc"/><stop offset=".2282" stop-color="#f0e4d7"/><stop offset=".5158" stop-color="#ead7c7"/><stop offset=".8338" stop-color="#e0c2ad"/><stop offset="1" stop-color="#dab49d"/></linearGradient><linearGradient id="j" gradientUnits="userSpaceOnUse" x1="66.085173494" x2="66.085173494" xlink:href="#i" y1="35.5118604382" y2="425.1766553232"/><linearGradient id="k"><stop offset="0" stop-color="#f2e9dc" stop-opacity="0"/><stop offset=".3944" stop-color="#ddbfa3" stop-opacity=".415686"/><stop offset=".6836" stop-color="#cea27a" stop-opacity=".694118"/><stop offset="1" stop-color="#c08552"/></linearGradient><linearGradient id="l" gradientUnits="userSpaceOnUse" x1="207.4541565914" x2="-78.3974736864" xlink:href="#k" y1="150.466350617" y2="264.0240841172"/><linearGradient id="m"><stop offset="0" stop-color="#f2e9dc" stop-opacity="0"/><stop offset=".6804" stop-color="#cfa37b" stop-opacity=".682353"/><stop offset="1" stop-color="#c08552"/></linearGradient><linearGradient id="n" gradientUnits="userSpaceOnUse" x1="310.2491435062" x2="-16.7180118894" xlink:href="#m" y1="73.0249118512" y2="252.1713794164"/><linearGradient id="o" gradientUnits="userSpaceOnUse" x1="-19.7276696532" x2="137.5555853804" xlink:href="#m" y1="209.8731337904" y2="175.283804418"/><linearGradient id="p"><stop offset="0" stop-color="#dab49d" stop-opacity="0"/><stop offset=".4385" stop-color="#ce9e7a" stop-opacity=".439216"/><stop offset="1" stop-color="#c08552"/></linearGradient><linearGradient id="q" gradientUnits="userSpaceOnUse" x1="75.864879657" x2="53.0759506492" xlink:href="#p" y1="131.6602813598" y2="108.8712519598"/><linearGradient id="r"><stop offset="0" stop-color="#ffe548"/><stop offset=".2472" stop-color="#ffe042"/><stop offset=".5621" stop-color="#ffd133"/><stop offset=".9123" stop-color="#ffb919"/><stop offset="1" stop-color="#ffb211"/></linearGradient><linearGradient id="s" gradientUnits="userSpaceOnUse" x1="52.209967532" x2="62.912278013" xlink:href="#r" y1="107.7420404942" y2="119.1823340374"/><linearGradient id="t" gradientUnits="userSpaceOnUse" x1="75.864879657" x2="53.0759506492" xlink:href="#p" y1="327.448763919" y2="304.6598349112"/><linearGradient id="u" gradientUnits="userSpaceOnUse" x1="52.209967532" x2="62.912278013" xlink:href="#r" y1="303.5306234456" y2="314.9709169888"/><linearGradient id="v" gradientUnits="userSpaceOnUse" x1="256.00011" x2="256.00011" xlink:href="#i" y1="35.5118604382" y2="425.1766553232"/><linearGradient id="w" gradientUnits="userSpaceOnUse" x1="397.3690930974" x2="111.5173624274" xlink:href="#k" y1="150.466350617" y2="264.0240841172"/><linearGradient id="x" gradientUnits="userSpaceOnUse" x1="500.16397962" x2="173.1968242244" xlink:href="#m" y1="73.0249118512" y2="252.1714798086"/><linearGradient id="y" gradientUnits="userSpaceOnUse" x1="170.1871664606" x2="327.4704214942" xlink:href="#m" y1="209.8731337904" y2="175.283804418"/><linearGradient id="z" gradientUnits="userSpaceOnUse" x1="265.7797157708" x2="242.990786763" xlink:href="#p" y1="131.6601809676" y2="108.8712519598"/><linearGradient id="A" gradientUnits="userSpaceOnUse" x1="242.1248036458" x2="252.8271141268" xlink:href="#r" y1="107.7420404942" y2="119.1823340374"/><linearGradient id="B" gradientUnits="userSpaceOnUse" x1="265.7797157708" x2="242.990786763" xlink:href="#p" y1="327.448763919" y2="304.6598349112"/><linearGradient id="C" gradientUnits="userSpaceOnUse" x1="242.1248036458" x2="252.8271141268" xlink:href="#r" y1="303.5306234456" y2="314.9709169888"/><linearGradient id="D" gradientUnits="userSpaceOnUse" x1="445.9149461138" x2="445.9149461138" xlink:href="#i" y1="35.5118604382" y2="425.1766553232"/><linearGradient id="E" gradientUnits="userSpaceOnUse" x1="587.2839292112" x2="301.4322989334" xlink:href="#k" y1="150.466350617" y2="264.0240841172"/><linearGradient id="F" gradientUnits="userSpaceOnUse" x1="690.0790165182" x2="363.1116603382" xlink:href="#m" y1="73.024811459" y2="252.1714798086"/><linearGradient id="G" gradientUnits="userSpaceOnUse" x1="360.1021029666" x2="517.385257608" xlink:href="#m" y1="209.8731337904" y2="175.283804418"/><linearGradient id="H" gradientUnits="userSpaceOnUse" x1="455.6945518846" x2="432.9056228768" xlink:href="#p" y1="131.6601809676" y2="108.8712519598"/><linearGradient id="I" gradientUnits="userSpaceOnUse" x1="432.0396397596" x2="442.7419502406" xlink:href="#r" y1="107.7420404942" y2="119.1823340374"/><linearGradient id="J" gradientUnits="userSpaceOnUse" x1="455.6945518846" x2="432.9056228768" xlink:href="#p" y1="327.448763919" y2="304.659734519"/><linearGradient id="K" gradientUnits="userSpaceOnUse" x1="432.0396397596" x2="442.7419502406" xlink:href="#r" y1="303.5306234456" y2="314.9709169888"/><path d="m46.179688 80.703125h419.640624v62.242187h-419.640624zm0 0" fill="url(#b)"/><path d="m46.179688 276.492188h419.640624v62.242187h-419.640624zm0 0" fill="url(#c)"/><path d="m118.460938 142.945312h76.054687l-62.242187-62.242187h-13.8125zm0 0" fill="url(#e)"/><path d="m308.203125 142.945312h76.054687l-62.242187-62.242187h-13.8125zm0 0" fill="url(#f)"/><path d="m118.460938 338.734375h76.054687l-62.242187-62.242187h-13.8125zm0 0" fill="url(#g)"/><path d="m308.203125 338.734375h76.054687l-62.242187-62.242187h-13.8125zm0 0" fill="url(#h)"/><path d="m124.96875 384.761719h-117.769531c-3.976563 0-7.199219-3.222657-7.199219-7.199219v-311.476562c0-36.5 29.585938-66.085938 66.085938-66.085938 36.496093 0 66.085937 29.585938 66.085937 66.085938v311.476562c0 3.976562-3.226563 7.199219-7.203125 7.199219zm0 0" fill="url(#j)"/><path d="m124.96875 384.761719c3.976562 0 7.203125-3.222657 7.203125-7.199219v-311.476562c0-33.214844-24.507813-60.699219-56.425781-65.375l12.21875 44.804687c3.386718 12.40625 1.738281 25.644531-4.578125 36.847656-7.222657 12.800781-7.042969 28.488281.46875 41.121094 5.976562 10.046875 7.378906 22.167969 3.859375 33.320313l-12.828125 40.621093c-7.042969 22.304688-4.878907 46.496094 6.015625 67.195313 8.050781 15.296875 11.394531 32.632812 9.617187 49.824218l-7.273437 70.316407zm0 0" fill="url(#l)"/><path d="m66.085938 0c-3.160157 0-6.261719.234375-9.300782.664062 32.09375 4.523438 56.785156 32.082032 56.785156 65.421876v311.476562c0 3.976562-3.226562 7.199219-7.203124 7.199219h18.601562c3.976562 0 7.199219-3.222657 7.199219-7.199219v-311.476562c.003906-36.5-29.585938-66.085938-66.082031-66.085938zm0 0" fill="url(#n)"/><path d="m45.207031 229.371094c7.863281-7.234375 11.039063-18.246094 8.234375-28.558594l-3.269531-12.035156c-14.738281-54.1875-14.613281-111.34375.351563-165.464844l6.261718-22.648438c-32.089844 4.523438-56.785156 32.082032-56.785156 65.421876v311.476562c0 3.976562 3.222656 7.199219 7.199219 7.199219h53.511719l-24.25-129.058594c-1.820313-9.699219 1.484374-19.652344 8.746093-26.332031zm0 0" fill="url(#o)"/><path d="m64.046875 104.203125c-2.019531-2.121094-4.859375-3.449219-8.019531-3.449219-6.113282 0-11.070313 4.957032-11.070313 11.070313 0 3.15625 1.328125 6 3.449219 8.015625l19.71875 19.71875c2.015625 2.121094 4.859375 3.449218 8.015625 3.449218 6.113281 0 11.070313-4.957031 11.070313-11.070312 0-3.160156-1.328126-6-3.449219-8.015625zm0 0" fill="url(#q)"/><path d="m67.101562 111.824219c0 6.113281-4.957031 11.070312-11.074218 11.070312-6.113282 0-11.070313-4.957031-11.070313-11.070312s4.957031-11.070313 11.070313-11.070313c6.117187 0 11.074218 4.957032 11.074218 11.070313zm0 0" fill="url(#s)"/><path d="m64.046875 299.992188c-2.019531-2.121094-4.859375-3.449219-8.019531-3.449219-6.113282 0-11.070313 4.957031-11.070313 11.070312 0 3.15625 1.328125 6 3.449219 8.015625l19.71875 19.71875c2.015625 2.121094 4.859375 3.449219 8.015625 3.449219 6.113281 0 11.070313-4.957031 11.070313-11.070313 0-3.15625-1.328126-6-3.449219-8.015624zm0 0" fill="url(#t)"/><path d="m67.101562 307.613281c0 6.113281-4.957031 11.070313-11.074218 11.070313-6.113282 0-11.070313-4.957032-11.070313-11.070313s4.957031-11.070312 11.070313-11.070312c6.117187 0 11.074218 4.957031 11.074218 11.070312zm0 0" fill="url(#u)"/><path d="m314.882812 384.761719h-117.765624c-3.980469 0-7.203126-3.222657-7.203126-7.199219v-311.476562c0-36.5 29.589844-66.085938 66.085938-66.085938s66.085938 29.585938 66.085938 66.085938v311.476562c0 3.976562-3.226563 7.199219-7.203126 7.199219zm0 0" fill="url(#v)"/><path d="m314.882812 384.761719c3.980469 0 7.203126-3.222657 7.203126-7.199219v-311.476562c0-33.214844-24.507813-60.699219-56.425782-65.375l12.222656 44.804687c3.382813 12.40625 1.738282 25.644531-4.582031 36.847656-7.222656 12.800781-7.042969 28.488281.46875 41.121094 5.976563 10.046875 7.378907 22.167969 3.859375 33.320313l-12.828125 40.621093c-7.042969 22.304688-4.878906 46.496094 6.015625 67.195313 8.050782 15.296875 11.398438 32.632812 9.617188 49.824218l-7.273438 70.316407zm0 0" fill="url(#w)"/><path d="m256 0c-3.160156 0-6.261719.234375-9.300781.664062 32.09375 4.523438 56.785156 32.082032 56.785156 65.421876v311.476562c0 3.976562-3.222656 7.199219-7.199219 7.199219h18.597656c3.976563 0 7.203126-3.222657 7.203126-7.199219v-311.476562c0-36.5-29.589844-66.085938-66.085938-66.085938zm0 0" fill="url(#x)"/><path d="m235.121094 229.371094c7.863281-7.234375 11.039062-18.246094 8.234375-28.558594l-3.273438-12.035156c-14.734375-54.1875-14.609375-111.34375.355469-165.464844l6.261719-22.648438c-32.09375 4.523438-56.785157 32.082032-56.785157 65.421876v311.476562c0 3.976562 3.226563 7.199219 7.203126 7.199219h53.507812l-24.25-129.0625c-1.820312-9.695313 1.484375-19.648438 8.746094-26.328125zm0 0" fill="url(#y)"/><path d="m253.960938 104.203125c-2.019532-2.121094-4.859376-3.449219-8.015626-3.449219-6.117187 0-11.074218 4.957032-11.074218 11.070313 0 3.15625 1.332031 6 3.449218 8.015625l19.71875 19.71875c2.019532 2.121094 4.859376 3.449218 8.015626 3.449218 6.117187 0 11.074218-4.957031 11.074218-11.070312 0-3.160156-1.332031-6-3.449218-8.015625zm0 0" fill="url(#z)"/><path d="m257.015625 111.824219c0 6.113281-4.957031 11.070312-11.070313 11.070312-6.117187 0-11.074218-4.957031-11.074218-11.070312s4.957031-11.070313 11.074218-11.070313c6.113282 0 11.070313 4.957032 11.070313 11.070313zm0 0" fill="url(#A)"/><path d="m253.960938 299.992188c-2.019532-2.121094-4.859376-3.449219-8.015626-3.449219-6.117187 0-11.074218 4.957031-11.074218 11.070312 0 3.15625 1.332031 6 3.449218 8.015625l19.71875 19.71875c2.019532 2.121094 4.859376 3.449219 8.015626 3.449219 6.117187 0 11.074218-4.957031 11.074218-11.070313 0-3.15625-1.332031-6-3.449218-8.015624zm0 0" fill="url(#B)"/><path d="m257.015625 307.613281c0 6.113281-4.957031 11.070313-11.070313 11.070313-6.117187 0-11.074218-4.957032-11.074218-11.070313s4.957031-11.070312 11.074218-11.070312c6.113282 0 11.070313 4.957031 11.070313 11.070312zm0 0" fill="url(#C)"/><path d="m504.800781 384.761719h-117.769531c-3.976562 0-7.203125-3.222657-7.203125-7.199219v-311.476562c0-36.5 29.589844-66.085938 66.085937-66.085938 36.5 0 66.085938 29.585938 66.085938 66.085938v311.476562c0 3.976562-3.222656 7.199219-7.199219 7.199219zm0 0" fill="url(#D)"/><path d="m504.800781 384.761719c3.976563 0 7.199219-3.222657 7.199219-7.199219v-311.476562c0-33.214844-24.507812-60.699219-56.421875-65.375l12.21875 44.804687c3.382813 12.40625 1.738281 25.644531-4.582031 36.847656-7.21875 12.800781-7.039063 28.488281.472656 41.121094 5.972656 10.046875 7.378906 22.167969 3.855469 33.320313l-12.828125 40.621093c-7.042969 22.304688-4.875 46.496094 6.019531 67.195313 8.046875 15.296875 11.394531 32.632812 9.617187 49.824218l-7.273437 70.316407zm0 0" fill="url(#E)"/><path d="m445.914062 0c-3.15625 0-6.257812.234375-9.300781.664062 32.09375 4.523438 56.785157 32.082032 56.785157 65.421876v311.476562c0 3.976562-3.222657 7.199219-7.199219 7.199219h18.597656c3.980469 0 7.203125-3.222657 7.203125-7.199219v-311.476562c0-36.5-29.585938-66.085938-66.085938-66.085938zm0 0" fill="url(#F)"/><path d="m425.035156 229.371094c7.863282-7.234375 11.039063-18.246094 8.234375-28.558594l-3.269531-12.035156c-14.738281-54.1875-14.613281-111.34375.351562-165.464844l6.261719-22.648438c-32.089843 4.523438-56.785156 32.082032-56.785156 65.421876v311.476562c0 3.976562 3.226563 7.199219 7.203125 7.199219h53.507812l-24.246093-129.0625c-1.824219-9.695313 1.480469-19.648438 8.742187-26.328125zm0 0" fill="url(#G)"/><path d="m443.875 104.203125c-2.015625-2.121094-4.859375-3.449219-8.015625-3.449219-6.117187 0-11.070313 4.957032-11.070313 11.070313 0 3.15625 1.328126 6 3.449219 8.015625l19.714844 19.71875c2.019531 2.121094 4.859375 3.449218 8.019531 3.449218 6.113282 0 11.070313-4.957031 11.070313-11.070312 0-3.160156-1.328125-6-3.449219-8.015625zm0 0" fill="url(#H)"/><path d="m446.929688 111.824219c0 6.113281-4.957032 11.070312-11.070313 11.070312-6.117187 0-11.070313-4.957031-11.070313-11.070312s4.953126-11.070313 11.070313-11.070313c6.113281 0 11.070313 4.957032 11.070313 11.070313zm0 0" fill="url(#I)"/><path d="m443.875 299.992188c-2.015625-2.121094-4.859375-3.449219-8.015625-3.449219-6.117187 0-11.070313 4.957031-11.070313 11.070312 0 3.15625 1.328126 6 3.449219 8.015625l19.714844 19.71875c2.019531 2.121094 4.859375 3.449219 8.019531 3.449219 6.113282 0 11.070313-4.957031 11.070313-11.070313 0-3.15625-1.328125-6-3.449219-8.015624zm0 0" fill="url(#J)"/><path d="m446.929688 307.613281c0 6.113281-4.957032 11.070313-11.070313 11.070313-6.117187 0-11.070313-4.957032-11.070313-11.070313s4.953126-11.070312 11.070313-11.070312c6.113281 0 11.070313 4.957031 11.070313 11.070312zm0 0" fill="url(#K)"/></svg>