<svg height="512pt" viewBox="0 -63 512 512" width="512pt" xmlns="http://www.w3.org/2000/svg" xmlns:xlink="http://www.w3.org/1999/xlink"><linearGradient id="a"><stop offset="0" stop-color="#1ccbf7"/><stop offset=".7395" stop-color="#08b0ec"/><stop offset="1" stop-color="#00a5e8"/></linearGradient><linearGradient id="b" gradientUnits="userSpaceOnUse" x1="305.9726365706" x2="368.7604282556" xlink:href="#a" y1="88.284425825" y2="306.878402105"/><linearGradient id="c"><stop offset="0" stop-color="#00a5e8" stop-opacity="0"/><stop offset=".324" stop-color="#0096cd" stop-opacity=".32549"/><stop offset="1" stop-color="#007189"/></linearGradient><linearGradient id="d" gradientUnits="userSpaceOnUse" x1="368.9732597196" x2="244.2725943726" xlink:href="#c" y1="286.9874947346" y2="-132.2183073536"/><linearGradient id="e" gradientUnits="userSpaceOnUse" x1="323.718162627" x2="323.718162627" xlink:href="#a" y1="85.4590881404" y2="112.0777787938"/><linearGradient id="f" gradientUnits="userSpaceOnUse" x1="276.3422803094" x2="99.9517794186" xlink:href="#c" y1="194.923028509" y2="189.096265221"/><linearGradient id="g"><stop offset="0" stop-color="#ffe548"/><stop offset="1" stop-color="#ffb211"/></linearGradient><linearGradient id="h" gradientUnits="userSpaceOnUse" x1="193.5321678642" x2="127.0298647792" xlink:href="#g" y1="186.204969861" y2="204.0915469584"/><linearGradient id="i" gradientUnits="userSpaceOnUse" x1="131.3291607442" x2="62.5778715948" y1="46.6209600796" y2="28.9650842578"><stop offset="0" stop-color="#ff9517" stop-opacity="0"/><stop offset=".3074" stop-color="#ee8421" stop-opacity=".305882"/><stop offset=".6784" stop-color="#e07728" stop-opacity=".678431"/><stop offset="1" stop-color="#db722b"/></linearGradient><linearGradient id="j"><stop offset="0" stop-color="#ff4974"/><stop offset=".2277" stop-color="#fd4571"/><stop offset=".4662" stop-color="#f93867"/><stop offset=".7098" stop-color="#f12358"/><stop offset=".9554" stop-color="#e60642"/><stop offset="1" stop-color="#e4003d"/></linearGradient><linearGradient id="k" gradientTransform="matrix(.709873 .709873 -.709873 .709873 -4.361236 -159.414613)" gradientUnits="userSpaceOnUse" x1="148.4121" x2="171.5683" xlink:href="#j" y1="71.3956" y2="94.5518"/><linearGradient id="l" gradientTransform="matrix(0 1.003922 -1.003922 0 24.382645 3536.151893)" gradientUnits="userSpaceOnUse" x1="-3505.9092" x2="-3530.665" xlink:href="#j" y1="-31.2967" y2="-31.2967"/><linearGradient id="m" gradientTransform="matrix(0 1.003922 -1.003922 0 24.382645 3536.151893)" gradientUnits="userSpaceOnUse" x1="-3495.8816" x2="-3511.116" xlink:href="#j" y1="-31.2967" y2="-31.2967"/><linearGradient id="n" gradientTransform="matrix(0 1.003922 -1.003922 0 24.382645 3536.151893)" gradientUnits="userSpaceOnUse" x1="-3478.7378" x2="-3500.8193" xlink:href="#j" y1="-31.2967" y2="-31.2967"/><linearGradient id="o" gradientTransform="matrix(0 1.003922 -1.003922 0 24.382645 3536.151893)" gradientUnits="userSpaceOnUse" x1="-3500.0869" x2="-3500.0869" xlink:href="#a" y1="8.964" y2="29.3475"/><linearGradient id="p"><stop offset="0" stop-color="#c08552"/><stop offset="1" stop-color="#895738"/></linearGradient><linearGradient id="q" gradientUnits="userSpaceOnUse" x1="261.3859507456" x2="366.9843898454" xlink:href="#p" y1="233.1707500416" y2="338.7692895336"/><linearGradient id="r" gradientTransform="matrix(-1.003922 0 0 -1.003922 -556.172549 8856.941829)" gradientUnits="userSpaceOnUse" x1="-939.9138" x2="-868.7339" xlink:href="#p" y1="8464.5352" y2="8535.7148"/><linearGradient id="s" gradientUnits="userSpaceOnUse" x1="299.4958337876" x2="351.5591283154" xlink:href="#g" y1="271.2807334758" y2="323.3440280036"/><path d="m310.546875 311.132812-37.578125-1.539062c-53.839844-2.210938-99.113281-41.117188-109.390625-94.011719l-20.277344-104.359375h348.6875l-32.945312 94.441406c-22.03125 63.160157-81.605469 105.46875-148.496094 105.46875zm0 0" fill="url(#b)"/><path d="m143.457031 117.578125 191.636719 191.632813c56.570312-8.917969 104.652344-48.238282 123.949219-103.546876l32.945312-94.445312h-348.6875v6.433594zm0 0" fill="url(#d)"/><path d="m496.855469 118.0625h-346.273438c-8.367187 0-15.144531-6.78125-15.144531-15.144531v-12.144531c0-8.367188 6.777344-15.144532 15.144531-15.144532h346.273438c8.363281 0 15.144531 6.777344 15.144531 15.144532v12.144531c0 8.363281-6.78125 15.144531-15.144531 15.144531zm0 0" fill="url(#e)"/><path d="m156.03125 75.867188-19.527344 9.339843c-.679687 1.726563-1.070312 3.597657-1.070312 5.566407v12.148437c0 6.144531 3.671875 11.429687 8.9375 13.800781l19.207031 98.859375c10.277344 52.894531 55.550781 91.800781 109.390625 94.011719l37.582031 1.542969c23.375 0 45.855469-5.175781 66.15625-14.59375zm0 0" fill="url(#f)"/><path d="m221.363281 385.558594c-3.839843 0-7.714843-.550782-11.507812-1.683594-14.152344-4.226562-24.8125-15.839844-27.820313-30.304688l-59.898437-291.816406c-2.894531-13.921875-15.339844-24.046875-29.59375-24.046875h-8.320313v-30.367187h8.320313c28.566406 0 53.519531 20.300781 59.332031 48.269531l59.898438 291.820313c1.066406 5.121093 5.089843 6.847656 6.773437 7.347656 1.679687.503906 5.992187 1.269531 9.714844-2.457032l45.84375-45.839843 21.472656 21.472656-45.84375 45.84375c-7.644531 7.644531-17.882813 11.761719-28.371094 11.761719zm0 0" fill="url(#h)"/><path d="m152.746094 59.867188-51.949219-51.953126c-2.707031-.375-5.464844-.574218-8.253906-.574218h-8.320313v30.367187h8.320313c14.25 0 26.699219 10.128907 29.589843 24.046875l2.898438 14.113282h31zm0 0" fill="url(#i)"/><path d="m0 30.582031v-16.488281c0-7.78125 6.308594-14.09375 14.09375-14.09375h77.925781c4.75 0 8.601563 3.851562 8.601563 8.601562v27.472657c0 4.75-3.851563 8.601562-8.601563 8.601562h-77.925781c-7.785156 0-14.09375-6.308593-14.09375-14.09375zm0 0" fill="url(#k)"/><path d="m15.535156 8.375c0-2.511719 2.035156-4.546875 4.546875-4.546875h71.441407c2.511718 0 4.546874 2.035156 4.546874 4.546875s-2.035156 4.546875-4.546874 4.546875h-71.441407c-2.511719 0-4.546875-2.035156-4.546875-4.546875zm0 0" fill="url(#l)"/><path d="m15.535156 22.339844c0-2.511719 2.035156-4.546875 4.546875-4.546875h71.441407c2.511718 0 4.546874 2.035156 4.546874 4.546875 0 2.511718-2.035156 4.546875-4.546874 4.546875h-71.441407c-2.511719 0-4.546875-2.035157-4.546875-4.546875zm0 0" fill="url(#m)"/><path d="m15.535156 36.304688c0-2.511719 2.035156-4.546876 4.546875-4.546876h71.441407c2.511718 0 4.546874 2.035157 4.546874 4.546876 0 2.507812-2.035156 4.542968-4.546874 4.542968h-71.441407c-2.511719 0-4.546875-2.035156-4.546875-4.542968zm0 0" fill="url(#n)"/><path d="m12.285156.121094c-6.929687.886718-12.285156 6.800781-12.285156 13.972656v16.488281c0 7.171875 5.355469 13.089844 12.285156 13.976563zm0 0" fill="url(#o)"/><path d="m336.558594 233.671875c-41.238282 0-74.671875 33.433594-74.671875 74.671875s33.433593 74.667969 74.671875 74.667969c41.238281 0 74.667968-33.429688 74.667968-74.667969s-33.429687-74.671875-74.667968-74.671875zm0 0" fill="url(#q)"/><path d="m336.558594 358.871094c27.90625 0 50.527344-22.621094 50.527344-50.527344s-22.625-50.53125-50.527344-50.53125c-27.90625 0-50.53125 22.625-50.53125 50.53125s22.625 50.527344 50.53125 50.527344zm0 0" fill="url(#r)"/><path d="m336.558594 271.527344c-20.332032 0-36.816406 16.484375-36.816406 36.816406s16.484374 36.8125 36.816406 36.8125c20.332031 0 36.8125-16.480469 36.8125-36.8125s-16.480469-36.816406-36.8125-36.816406zm0 0" fill="url(#s)"/></svg>